<svg xmlns="http://www.w3.org/2000/svg" width="128" height="128" fill="none" viewBox="0 0 128 128"><circle cx="80" cy="96" r="16" fill="#ff4f1e" fill-opacity=".6" stroke="#ff4f1e" stroke-width="8"/><path fill="#ffc124" fill-opacity=".6" stroke="#ffc124" stroke-width="8" d="M9.035 40.287a4 4 0 0 1 2.829-4.899L50.5 25.035a4 4 0 0 1 4.899 2.829L65.753 66.5a4 4 0 0 1-2.829 4.899L24.287 81.752a4 4 0 0 1-4.899-2.828z"/><path fill="#1c7eff" fill-opacity=".6" stroke="#1c7eff" stroke-width="8" d="M104.581 20.229 73.808 39.005c-2.592 1.581-2.546 5.36.084 6.879l29.898 17.261c2.63 1.519 5.925-.331 5.999-3.367l.874-36.037c.077-3.165-3.379-5.161-6.082-3.512z"/></svg>